<svg width="24" height="25" viewBox="0 0 24 25" fill="none" xmlns="http://www.w3.org/2000/svg">
<path d="M11.5 15C11.6794 15 11.8534 14.9656 12.022 14.8969C12.1906 14.8282 12.3305 14.7366 12.4417 14.6221L18.63 8.30152C18.8767 8.04961 19 7.729 19 7.33969C19 6.95038 18.8767 6.62977 18.63 6.37786C18.3834 6.12595 18.0695 6 17.6883 6C17.3072 6 16.9933 6.12595 16.7466 6.37786L11.5 11.7366L6.25336 6.37786C6.00673 6.12595 5.69283 6 5.31166 6C4.93049 6 4.61659 6.12595 4.36996 6.37786C4.12332 6.62977 4 6.95038 4 7.33969C4 7.729 4.12332 8.04961 4.36996 8.30152L10.5583 14.6221C10.6928 14.7595 10.8386 14.8571 10.9955 14.9148C11.1525 14.9725 11.3206 15.0009 11.5 15Z" fill="#343440"/>
<path d="M11.5 23C11.6794 23 11.8534 22.9656 12.022 22.8969C12.1906 22.8282 12.3305 22.7366 12.4417 22.6221L18.63 16.3015C18.8767 16.0496 19 15.729 19 15.3397C19 14.9504 18.8767 14.6298 18.63 14.3779C18.3834 14.126 18.0695 14 17.6883 14C17.3072 14 16.9933 14.126 16.7466 14.3779L11.5 19.7366L6.25336 14.3779C6.00673 14.126 5.69283 14 5.31166 14C4.93049 14 4.61659 14.126 4.36996 14.3779C4.12332 14.6298 4 14.9504 4 15.3397C4 15.729 4.12332 16.0496 4.36996 16.3015L10.5583 22.6221C10.6928 22.7595 10.8386 22.8571 10.9955 22.9148C11.1525 22.9725 11.3206 23.0009 11.5 23Z" fill="#343440"/>
</svg>
