<svg width="219" height="219" viewBox="0 0 219 219" fill="none" xmlns="http://www.w3.org/2000/svg">
<path d="M78.0341 8.19C78.2616 5.94682 81.1084 5.12723 82.4938 6.90608L85.6255 10.9273C88.3871 14.4732 94.0052 13.3894 95.2497 9.07077L96.661 4.17323C97.2854 2.00671 100.233 1.70862 101.278 3.70624L103.642 8.22199C105.726 12.204 111.447 12.1409 113.443 8.11381L115.706 3.547C116.707 1.52678 119.66 1.75975 120.332 3.91195L121.851 8.77713C123.191 13.0673 128.832 14.0267 131.514 10.4207L134.556 6.33139C135.902 4.5224 138.766 5.27895 139.043 7.51655L139.669 12.5748C140.221 17.0352 145.6 18.9864 148.883 15.9173L152.607 12.4369C154.254 10.8973 156.937 12.1531 156.81 14.4042L156.523 19.493C156.269 23.9802 161.213 26.8605 164.992 24.427L169.277 21.6674C171.173 20.4466 173.588 22.1614 173.061 24.3536L171.87 29.3092C170.82 33.6792 175.17 37.3959 179.322 35.6762L184.031 33.7261C186.114 32.8634 188.185 34.9819 187.275 37.0448L185.218 41.7082C183.404 45.8203 187.021 50.254 191.413 49.3034L196.395 48.2255C198.599 47.7486 200.258 50.2028 198.994 52.0701L196.138 56.2912C193.619 60.0133 196.385 65.0216 200.877 64.8706L205.971 64.6995C208.225 64.6238 209.419 67.3348 207.842 68.9464L204.278 72.5896C201.135 75.8022 202.963 81.2239 207.409 81.8775L212.452 82.6186C214.683 82.9465 215.374 85.8272 213.534 87.1314L209.377 90.0796C205.711 92.6793 206.541 98.3403 210.8 99.7774L215.629 101.407C217.765 102.128 217.931 105.086 215.888 106.041L211.271 108.199C207.2 110.102 207.006 115.821 210.939 117.995L215.4 120.461C217.373 121.551 217.008 124.491 214.828 125.066L209.9 126.365C205.554 127.511 204.342 133.103 207.824 135.945L211.773 139.167C213.52 140.593 212.635 143.42 210.388 143.597L205.306 143.995C200.826 144.346 198.635 149.632 201.554 153.05L204.864 156.926C206.328 158.64 204.953 161.264 202.71 161.036L197.639 160.521C193.168 160.067 190.068 164.876 192.33 168.76L194.894 173.165C196.029 175.113 194.208 177.45 192.041 176.825L187.144 175.413C182.826 174.167 178.918 178.346 180.449 182.572L182.186 187.363C182.954 189.483 180.745 191.457 178.725 190.455L174.159 188.191C170.132 186.194 165.541 189.608 166.293 194.039L167.147 199.064C167.524 201.287 164.998 202.834 163.189 201.488L159.101 198.445C155.495 195.762 150.368 198.301 150.317 202.795L150.259 207.892C150.234 210.146 147.472 211.218 145.933 209.57L142.453 205.846C139.385 202.562 133.887 204.145 133.034 208.558L132.068 213.562C131.64 215.776 128.731 216.337 127.511 214.441L124.752 210.155C122.32 206.376 116.627 206.952 115 211.141L113.156 215.893C112.34 217.995 109.377 218.027 108.515 215.944L106.566 211.235C104.847 207.082 99.1434 206.632 96.7948 210.464L94.1314 214.809C92.9531 216.732 90.0327 216.235 89.5563 214.031L88.4794 209.049C87.5298 204.656 81.9979 203.195 79.0028 206.546L75.6063 210.346C74.1038 212.027 71.3189 211.017 71.2437 208.764L71.0736 203.67C70.9237 199.178 65.7416 196.752 62.1963 199.515L58.1758 202.647C56.3972 204.033 53.8375 202.542 54.1659 200.311L54.9081 195.269C55.5627 190.822 50.8969 187.51 46.9154 189.595L42.4001 191.96C40.4027 193.006 38.1504 191.081 38.8718 188.945L40.5025 184.116C41.9405 179.858 37.941 175.766 33.6512 177.107L28.7863 178.627C26.6343 179.3 24.7618 177.004 25.853 175.031L28.3197 170.571C30.4949 166.638 27.2904 161.898 22.8301 162.451L17.772 163.078C15.5344 163.355 14.1019 160.762 15.5279 159.016L18.7514 155.068C21.5939 151.586 19.2872 146.35 14.7998 146.098L9.71104 145.812C7.45992 145.685 6.51344 142.878 8.22834 141.414L12.105 138.105C15.5234 135.187 14.1887 129.623 9.81856 128.574L4.86264 127.384C2.6703 126.857 2.24027 123.926 4.18897 122.792L8.59414 120.229C12.4786 117.968 12.1589 112.255 8.04634 110.442L3.38258 108.386C1.31948 107.477 1.41972 104.516 3.5396 103.748L8.33174 102.012C12.5575 100.482 13.2629 94.8036 9.54015 92.2854L5.31845 89.4297C3.45091 88.1665 4.07819 85.2712 6.30112 84.8942L11.3262 84.0419C15.7573 83.2903 17.4652 77.8296 14.252 74.6871L10.608 71.1235C8.99606 69.5471 10.1302 66.8104 12.3848 66.8363L17.4812 66.895C21.9754 66.9467 24.6309 61.8787 22.0304 58.213L19.0813 54.056C17.7767 52.2171 19.3813 49.7269 21.595 50.155L26.5991 51.1227C31.0118 51.9761 34.5295 47.4636 32.6253 43.3925L30.4659 38.7757C29.5106 36.7334 31.5341 34.5697 33.6358 35.3862L38.3867 37.2319C42.576 38.8595 46.843 35.0477 45.6963 30.702L44.396 25.7738C43.8207 23.5938 46.198 21.8262 48.1201 23.0048L52.4651 25.6691C56.2965 28.0186 61.1756 25.0299 60.8233 20.5493L60.4238 15.4682C60.247 13.2204 62.9017 11.9057 64.5825 13.4086L68.3819 16.8059C71.7323 19.8018 77.0665 17.7323 77.5199 13.2608L78.0341 8.19Z" fill="#FFA6B8" stroke="#FA5981" stroke-width="3"/>
</svg>
