<svg width="33" height="32" viewBox="0 0 33 32" fill="none" xmlns="http://www.w3.org/2000/svg">
<path d="M0.711337 28.0914C-0.107635 28.8326 -0.170692 30.0974 0.570496 30.9163C1.31168 31.7353 2.57644 31.7984 3.39541 31.0572L0.711337 28.0914ZM32.9441 3.52493C32.9991 2.42173 32.1494 1.48282 31.0462 1.42782L13.0685 0.531514C11.9653 0.476512 11.0264 1.32624 10.9714 2.42944C10.9164 3.53264 11.7661 4.47155 12.8693 4.52655L28.8495 5.32327L28.0527 21.3034C27.9977 22.4066 28.8475 23.3455 29.9507 23.4005C31.0539 23.4555 31.9928 22.6058 32.0478 21.5026L32.9441 3.52493ZM3.39541 31.0572L32.2886 4.90822L29.6045 1.94246L0.711337 28.0914L3.39541 31.0572Z" fill="#343440"/>
</svg>
